<svg width="115" height="34" viewBox="0 0 115 34" fill="none" xmlns="http://www.w3.org/2000/svg">
<rect width="115" height="34" rx="17" fill="white"/>
<path d="M26.118 17.65V21.16C25.678 21.484 25.208 21.722 24.708 21.874C24.212 22.022 23.68 22.096 23.112 22.096C22.404 22.096 21.762 21.986 21.186 21.766C20.614 21.546 20.124 21.24 19.716 20.848C19.312 20.456 19 19.988 18.78 19.444C18.56 18.9 18.45 18.306 18.45 17.662C18.45 17.01 18.556 16.412 18.768 15.868C18.98 15.324 19.28 14.856 19.668 14.464C20.06 14.072 20.534 13.768 21.09 13.552C21.646 13.336 22.27 13.228 22.962 13.228C23.314 13.228 23.642 13.256 23.946 13.312C24.254 13.368 24.538 13.446 24.798 13.546C25.062 13.642 25.302 13.76 25.518 13.9C25.734 14.04 25.932 14.194 26.112 14.362L25.65 15.094C25.578 15.21 25.484 15.282 25.368 15.31C25.252 15.334 25.126 15.304 24.99 15.22C24.858 15.144 24.726 15.068 24.594 14.992C24.462 14.916 24.314 14.85 24.15 14.794C23.99 14.738 23.808 14.692 23.604 14.656C23.404 14.62 23.172 14.602 22.908 14.602C22.48 14.602 22.092 14.674 21.744 14.818C21.4 14.962 21.106 15.168 20.862 15.436C20.618 15.704 20.43 16.026 20.298 16.402C20.166 16.778 20.1 17.198 20.1 17.662C20.1 18.158 20.17 18.602 20.31 18.994C20.454 19.382 20.654 19.712 20.91 19.984C21.17 20.252 21.482 20.458 21.846 20.602C22.21 20.742 22.616 20.812 23.064 20.812C23.384 20.812 23.67 20.778 23.922 20.71C24.174 20.642 24.42 20.55 24.66 20.434V18.862H23.568C23.464 18.862 23.382 18.834 23.322 18.778C23.266 18.718 23.238 18.646 23.238 18.562V17.65H26.118ZM31.3347 18.214C31.3347 18.022 31.3067 17.842 31.2507 17.674C31.1987 17.502 31.1187 17.352 31.0107 17.224C30.9027 17.096 30.7647 16.996 30.5967 16.924C30.4327 16.848 30.2407 16.81 30.0207 16.81C29.5927 16.81 29.2547 16.932 29.0067 17.176C28.7627 17.42 28.6067 17.766 28.5387 18.214H31.3347ZM28.5087 19.108C28.5327 19.424 28.5887 19.698 28.6767 19.93C28.7647 20.158 28.8807 20.348 29.0247 20.5C29.1687 20.648 29.3387 20.76 29.5347 20.836C29.7347 20.908 29.9547 20.944 30.1947 20.944C30.4347 20.944 30.6407 20.916 30.8127 20.86C30.9887 20.804 31.1407 20.742 31.2687 20.674C31.4007 20.606 31.5147 20.544 31.6107 20.488C31.7107 20.432 31.8067 20.404 31.8987 20.404C32.0227 20.404 32.1147 20.45 32.1747 20.542L32.6007 21.082C32.4367 21.274 32.2527 21.436 32.0487 21.568C31.8447 21.696 31.6307 21.8 31.4067 21.88C31.1867 21.956 30.9607 22.01 30.7287 22.042C30.5007 22.074 30.2787 22.09 30.0627 22.09C29.6347 22.09 29.2367 22.02 28.8687 21.88C28.5007 21.736 28.1807 21.526 27.9087 21.25C27.6367 20.97 27.4227 20.626 27.2667 20.218C27.1107 19.806 27.0327 19.33 27.0327 18.79C27.0327 18.37 27.1007 17.976 27.2367 17.608C27.3727 17.236 27.5667 16.914 27.8187 16.642C28.0747 16.366 28.3847 16.148 28.7487 15.988C29.1167 15.828 29.5307 15.748 29.9907 15.748C30.3787 15.748 30.7367 15.81 31.0647 15.934C31.3927 16.058 31.6747 16.24 31.9107 16.48C32.1467 16.716 32.3307 17.008 32.4627 17.356C32.5987 17.7 32.6667 18.094 32.6667 18.538C32.6667 18.762 32.6427 18.914 32.5947 18.994C32.5467 19.07 32.4547 19.108 32.3187 19.108H28.5087ZM35.7723 22.096C35.2363 22.096 34.8243 21.946 34.5363 21.646C34.2523 21.342 34.1103 20.924 34.1103 20.392V16.954H33.4803C33.4003 16.954 33.3323 16.928 33.2763 16.876C33.2203 16.824 33.1923 16.746 33.1923 16.642V16.054L34.1823 15.892L34.4943 14.212C34.5143 14.132 34.5523 14.07 34.6083 14.026C34.6643 13.982 34.7363 13.96 34.8243 13.96H35.5923V15.898H37.2363V16.954H35.5923V20.29C35.5923 20.482 35.6383 20.632 35.7303 20.74C35.8263 20.848 35.9563 20.902 36.1203 20.902C36.2123 20.902 36.2883 20.892 36.3483 20.872C36.4123 20.848 36.4663 20.824 36.5103 20.8C36.5583 20.776 36.6003 20.754 36.6363 20.734C36.6723 20.71 36.7083 20.698 36.7443 20.698C36.7883 20.698 36.8243 20.71 36.8523 20.734C36.8803 20.754 36.9103 20.786 36.9423 20.83L37.3863 21.55C37.1703 21.73 36.9223 21.866 36.6423 21.958C36.3623 22.05 36.0723 22.096 35.7723 22.096ZM47.2951 19.954C47.3831 19.954 47.4611 19.988 47.5291 20.056L48.1651 20.746C47.8131 21.182 47.3791 21.516 46.8631 21.748C46.3511 21.98 45.7351 22.096 45.0151 22.096C44.3711 22.096 43.7911 21.986 43.2751 21.766C42.7631 21.546 42.3251 21.24 41.9611 20.848C41.5971 20.456 41.3171 19.988 41.1211 19.444C40.9291 18.9 40.8331 18.306 40.8331 17.662C40.8331 17.01 40.9371 16.414 41.1451 15.874C41.3531 15.33 41.6451 14.862 42.0211 14.47C42.4011 14.078 42.8531 13.774 43.3771 13.558C43.9011 13.338 44.4811 13.228 45.1171 13.228C45.7491 13.228 46.3091 13.332 46.7971 13.54C47.2891 13.748 47.7071 14.02 48.0511 14.356L47.5111 15.106C47.4791 15.154 47.4371 15.196 47.3851 15.232C47.3371 15.268 47.2691 15.286 47.1811 15.286C47.1211 15.286 47.0591 15.27 46.9951 15.238C46.9311 15.202 46.8611 15.16 46.7851 15.112C46.7091 15.06 46.6211 15.004 46.5211 14.944C46.4211 14.884 46.3051 14.83 46.1731 14.782C46.0411 14.73 45.8871 14.688 45.7111 14.656C45.5391 14.62 45.3391 14.602 45.1111 14.602C44.7231 14.602 44.3671 14.672 44.0431 14.812C43.7231 14.948 43.4471 15.148 43.2151 15.412C42.9831 15.672 42.8031 15.992 42.6751 16.372C42.5471 16.748 42.4831 17.178 42.4831 17.662C42.4831 18.15 42.5511 18.584 42.6871 18.964C42.8271 19.344 43.0151 19.664 43.2511 19.924C43.4871 20.184 43.7651 20.384 44.0851 20.524C44.4051 20.66 44.7491 20.728 45.1171 20.728C45.3371 20.728 45.5351 20.716 45.7111 20.692C45.8911 20.668 46.0551 20.63 46.2031 20.578C46.3551 20.526 46.4971 20.46 46.6291 20.38C46.7651 20.296 46.8991 20.194 47.0311 20.074C47.0711 20.038 47.1131 20.01 47.1571 19.99C47.2011 19.966 47.2471 19.954 47.2951 19.954ZM52.8738 18.214C52.8738 18.022 52.8458 17.842 52.7898 17.674C52.7378 17.502 52.6578 17.352 52.5498 17.224C52.4418 17.096 52.3038 16.996 52.1358 16.924C51.9718 16.848 51.7798 16.81 51.5598 16.81C51.1318 16.81 50.7938 16.932 50.5458 17.176C50.3018 17.42 50.1458 17.766 50.0778 18.214H52.8738ZM50.0478 19.108C50.0718 19.424 50.1278 19.698 50.2158 19.93C50.3038 20.158 50.4198 20.348 50.5638 20.5C50.7078 20.648 50.8778 20.76 51.0738 20.836C51.2738 20.908 51.4938 20.944 51.7338 20.944C51.9738 20.944 52.1798 20.916 52.3518 20.86C52.5278 20.804 52.6798 20.742 52.8078 20.674C52.9398 20.606 53.0538 20.544 53.1498 20.488C53.2498 20.432 53.3458 20.404 53.4378 20.404C53.5618 20.404 53.6538 20.45 53.7138 20.542L54.1398 21.082C53.9758 21.274 53.7918 21.436 53.5878 21.568C53.3838 21.696 53.1698 21.8 52.9458 21.88C52.7258 21.956 52.4998 22.01 52.2678 22.042C52.0398 22.074 51.8178 22.09 51.6018 22.09C51.1738 22.09 50.7758 22.02 50.4078 21.88C50.0398 21.736 49.7198 21.526 49.4478 21.25C49.1758 20.97 48.9618 20.626 48.8058 20.218C48.6498 19.806 48.5718 19.33 48.5718 18.79C48.5718 18.37 48.6398 17.976 48.7758 17.608C48.9118 17.236 49.1058 16.914 49.3578 16.642C49.6138 16.366 49.9238 16.148 50.2878 15.988C50.6558 15.828 51.0698 15.748 51.5298 15.748C51.9178 15.748 52.2758 15.81 52.6038 15.934C52.9318 16.058 53.2138 16.24 53.4498 16.48C53.6858 16.716 53.8698 17.008 54.0018 17.356C54.1378 17.7 54.2058 18.094 54.2058 18.538C54.2058 18.762 54.1818 18.914 54.1338 18.994C54.0858 19.07 53.9938 19.108 53.8578 19.108H50.0478ZM56.7159 16.912C56.9079 16.544 57.1359 16.256 57.3999 16.048C57.6639 15.836 57.9759 15.73 58.3359 15.73C58.6199 15.73 58.8479 15.792 59.0199 15.916L58.9239 17.026C58.9039 17.098 58.8739 17.15 58.8339 17.182C58.7979 17.21 58.7479 17.224 58.6839 17.224C58.6239 17.224 58.5339 17.214 58.4139 17.194C58.2979 17.174 58.1839 17.164 58.0719 17.164C57.9079 17.164 57.7619 17.188 57.6339 17.236C57.5059 17.284 57.3899 17.354 57.2859 17.446C57.1859 17.534 57.0959 17.642 57.0159 17.77C56.9399 17.898 56.8679 18.044 56.7999 18.208V22H55.3179V15.844H56.1879C56.3399 15.844 56.4459 15.872 56.5059 15.928C56.5659 15.98 56.6059 16.076 56.6259 16.216L56.7159 16.912ZM66.0045 22H64.5225V16.954H61.6665V20.29C61.6665 20.482 61.7125 20.632 61.8045 20.74C61.9005 20.848 62.0305 20.902 62.1945 20.902C62.2865 20.902 62.3625 20.892 62.4225 20.872C62.4865 20.848 62.5405 20.824 62.5845 20.8C62.6325 20.776 62.6745 20.754 62.7105 20.734C62.7465 20.71 62.7825 20.698 62.8185 20.698C62.8625 20.698 62.8985 20.71 62.9265 20.734C62.9545 20.754 62.9845 20.786 63.0165 20.83L63.4605 21.55C63.2445 21.73 62.9965 21.866 62.7165 21.958C62.4365 22.05 62.1465 22.096 61.8465 22.096C61.3105 22.096 60.8985 21.946 60.6105 21.646C60.3265 21.342 60.1845 20.924 60.1845 20.392V16.954H59.5545C59.4745 16.954 59.4065 16.928 59.3505 16.876C59.2945 16.824 59.2665 16.746 59.2665 16.642V16.054L60.2565 15.886L60.5685 14.212C60.5885 14.132 60.6265 14.07 60.6825 14.026C60.7385 13.982 60.8105 13.96 60.8985 13.96H61.6665V15.898H66.0045V22ZM66.2625 14.026C66.2625 14.154 66.2365 14.276 66.1845 14.392C66.1325 14.504 66.0625 14.602 65.9745 14.686C65.8905 14.77 65.7885 14.838 65.6685 14.89C65.5525 14.938 65.4285 14.962 65.2965 14.962C65.1685 14.962 65.0485 14.938 64.9365 14.89C64.8245 14.838 64.7265 14.77 64.6425 14.686C64.5585 14.602 64.4905 14.504 64.4385 14.392C64.3905 14.276 64.3665 14.154 64.3665 14.026C64.3665 13.894 64.3905 13.772 64.4385 13.66C64.4905 13.544 64.5585 13.444 64.6425 13.36C64.7265 13.272 64.8245 13.204 64.9365 13.156C65.0485 13.104 65.1685 13.078 65.2965 13.078C65.4285 13.078 65.5525 13.104 65.6685 13.156C65.7885 13.204 65.8905 13.272 65.9745 13.36C66.0625 13.444 66.1325 13.544 66.1845 13.66C66.2365 13.772 66.2625 13.894 66.2625 14.026ZM67.9552 22V16.96L67.4212 16.876C67.3052 16.852 67.2112 16.812 67.1392 16.756C67.0712 16.696 67.0372 16.612 67.0372 16.504V15.898H67.9552V15.7C67.9552 15.324 68.0172 14.976 68.1412 14.656C68.2652 14.332 68.4532 14.052 68.7052 13.816C68.9572 13.58 69.2752 13.396 69.6592 13.264C70.0472 13.128 70.5032 13.06 71.0272 13.06C71.1952 13.06 71.3652 13.07 71.5372 13.09C71.7132 13.106 71.8652 13.134 71.9932 13.174L71.9452 13.942C71.9372 14.034 71.8872 14.09 71.7952 14.11C71.7032 14.126 71.5892 14.134 71.4532 14.134C71.0652 14.134 70.7392 14.168 70.4752 14.236C70.2152 14.304 70.0032 14.406 69.8392 14.542C69.6792 14.674 69.5632 14.842 69.4912 15.046C69.4232 15.246 69.3892 15.48 69.3892 15.748V15.898H73.2052V22H71.7232V16.954H69.4372V22H67.9552ZM79.1342 17.146C79.0902 17.202 79.0462 17.246 79.0022 17.278C78.9622 17.31 78.9022 17.326 78.8222 17.326C78.7462 17.326 78.6722 17.304 78.6002 17.26C78.5282 17.212 78.4422 17.16 78.3422 17.104C78.2422 17.044 78.1222 16.992 77.9822 16.948C77.8462 16.9 77.6762 16.876 77.4722 16.876C77.2122 16.876 76.9842 16.924 76.7882 17.02C76.5922 17.112 76.4282 17.246 76.2962 17.422C76.1682 17.598 76.0722 17.812 76.0082 18.064C75.9442 18.312 75.9122 18.594 75.9122 18.91C75.9122 19.238 75.9462 19.53 76.0142 19.786C76.0862 20.042 76.1882 20.258 76.3202 20.434C76.4522 20.606 76.6122 20.738 76.8002 20.83C76.9882 20.918 77.2002 20.962 77.4362 20.962C77.6722 20.962 77.8622 20.934 78.0062 20.878C78.1542 20.818 78.2782 20.754 78.3782 20.686C78.4782 20.614 78.5642 20.55 78.6362 20.494C78.7122 20.434 78.7962 20.404 78.8882 20.404C79.0082 20.404 79.0982 20.45 79.1582 20.542L79.5842 21.082C79.4202 21.274 79.2422 21.436 79.0502 21.568C78.8582 21.696 78.6582 21.8 78.4502 21.88C78.2462 21.956 78.0342 22.01 77.8142 22.042C77.5982 22.074 77.3822 22.09 77.1662 22.09C76.7862 22.09 76.4282 22.02 76.0922 21.88C75.7562 21.736 75.4622 21.528 75.2102 21.256C74.9582 20.984 74.7582 20.652 74.6102 20.26C74.4662 19.864 74.3942 19.414 74.3942 18.91C74.3942 18.458 74.4582 18.04 74.5862 17.656C74.7182 17.268 74.9102 16.934 75.1622 16.654C75.4142 16.37 75.7262 16.148 76.0982 15.988C76.4702 15.828 76.8982 15.748 77.3822 15.748C77.8422 15.748 78.2442 15.822 78.5882 15.97C78.9362 16.118 79.2482 16.33 79.5242 16.606L79.1342 17.146ZM83.7653 19.372C83.3373 19.392 82.9773 19.43 82.6853 19.486C82.3933 19.538 82.1593 19.606 81.9833 19.69C81.8073 19.774 81.6813 19.872 81.6053 19.984C81.5293 20.096 81.4913 20.218 81.4913 20.35C81.4913 20.61 81.5673 20.796 81.7193 20.908C81.8753 21.02 82.0773 21.076 82.3253 21.076C82.6293 21.076 82.8913 21.022 83.1113 20.914C83.3353 20.802 83.5533 20.634 83.7653 20.41V19.372ZM80.3693 16.702C81.0773 16.054 81.9293 15.73 82.9253 15.73C83.2853 15.73 83.6073 15.79 83.8913 15.91C84.1753 16.026 84.4153 16.19 84.6113 16.402C84.8073 16.61 84.9553 16.86 85.0553 17.152C85.1593 17.444 85.2113 17.764 85.2113 18.112V22H84.5393C84.3993 22 84.2913 21.98 84.2153 21.94C84.1393 21.896 84.0793 21.81 84.0353 21.682L83.9033 21.238C83.7473 21.378 83.5953 21.502 83.4473 21.61C83.2993 21.714 83.1453 21.802 82.9853 21.874C82.8253 21.946 82.6533 22 82.4693 22.036C82.2893 22.076 82.0893 22.096 81.8693 22.096C81.6093 22.096 81.3693 22.062 81.1493 21.994C80.9293 21.922 80.7393 21.816 80.5793 21.676C80.4193 21.536 80.2953 21.362 80.2073 21.154C80.1193 20.946 80.0753 20.704 80.0753 20.428C80.0753 20.272 80.1013 20.118 80.1533 19.966C80.2053 19.81 80.2893 19.662 80.4053 19.522C80.5253 19.382 80.6793 19.25 80.8673 19.126C81.0553 19.002 81.2853 18.894 81.5573 18.802C81.8333 18.71 82.1533 18.636 82.5173 18.58C82.8813 18.52 83.2973 18.484 83.7653 18.472V18.112C83.7653 17.7 83.6773 17.396 83.5013 17.2C83.3253 17 83.0713 16.9 82.7393 16.9C82.4993 16.9 82.2993 16.928 82.1393 16.984C81.9833 17.04 81.8453 17.104 81.7253 17.176C81.6053 17.244 81.4953 17.306 81.3953 17.362C81.2993 17.418 81.1913 17.446 81.0713 17.446C80.9673 17.446 80.8793 17.42 80.8073 17.368C80.7353 17.312 80.6773 17.248 80.6333 17.176L80.3693 16.702ZM88.577 22.096C88.041 22.096 87.629 21.946 87.341 21.646C87.057 21.342 86.915 20.924 86.915 20.392V16.954H86.285C86.205 16.954 86.137 16.928 86.081 16.876C86.025 16.824 85.997 16.746 85.997 16.642V16.054L86.987 15.892L87.299 14.212C87.319 14.132 87.357 14.07 87.413 14.026C87.469 13.982 87.541 13.96 87.629 13.96H88.397V15.898H90.041V16.954H88.397V20.29C88.397 20.482 88.443 20.632 88.535 20.74C88.631 20.848 88.761 20.902 88.925 20.902C89.017 20.902 89.093 20.892 89.153 20.872C89.217 20.848 89.271 20.824 89.315 20.8C89.363 20.776 89.405 20.754 89.441 20.734C89.477 20.71 89.513 20.698 89.549 20.698C89.593 20.698 89.629 20.71 89.657 20.734C89.685 20.754 89.715 20.786 89.747 20.83L90.191 21.55C89.975 21.73 89.727 21.866 89.447 21.958C89.167 22.05 88.877 22.096 88.577 22.096ZM94.9089 18.214C94.9089 18.022 94.8809 17.842 94.8249 17.674C94.7729 17.502 94.6929 17.352 94.5849 17.224C94.4769 17.096 94.3389 16.996 94.1709 16.924C94.0069 16.848 93.8149 16.81 93.5949 16.81C93.1669 16.81 92.8289 16.932 92.5809 17.176C92.3369 17.42 92.1809 17.766 92.1129 18.214H94.9089ZM92.0829 19.108C92.1069 19.424 92.1629 19.698 92.2509 19.93C92.3389 20.158 92.4549 20.348 92.5989 20.5C92.7429 20.648 92.9129 20.76 93.1089 20.836C93.3089 20.908 93.5289 20.944 93.7689 20.944C94.0089 20.944 94.2149 20.916 94.3869 20.86C94.5629 20.804 94.7149 20.742 94.8429 20.674C94.9749 20.606 95.0889 20.544 95.1849 20.488C95.2849 20.432 95.3809 20.404 95.4729 20.404C95.5969 20.404 95.6889 20.45 95.7489 20.542L96.1749 21.082C96.0109 21.274 95.8269 21.436 95.6229 21.568C95.4189 21.696 95.2049 21.8 94.9809 21.88C94.7609 21.956 94.5349 22.01 94.3029 22.042C94.0749 22.074 93.8529 22.09 93.6369 22.09C93.2089 22.09 92.8109 22.02 92.4429 21.88C92.0749 21.736 91.7549 21.526 91.4829 21.25C91.2109 20.97 90.9969 20.626 90.8409 20.218C90.6849 19.806 90.6069 19.33 90.6069 18.79C90.6069 18.37 90.6749 17.976 90.8109 17.608C90.9469 17.236 91.1409 16.914 91.3929 16.642C91.6489 16.366 91.9589 16.148 92.3229 15.988C92.6909 15.828 93.1049 15.748 93.5649 15.748C93.9529 15.748 94.3109 15.81 94.6389 15.934C94.9669 16.058 95.2489 16.24 95.4849 16.48C95.7209 16.716 95.9049 17.008 96.0369 17.356C96.1729 17.7 96.2409 18.094 96.2409 18.538C96.2409 18.762 96.2169 18.914 96.1689 18.994C96.1209 19.07 96.0289 19.108 95.8929 19.108H92.0829Z" fill="#005CB1"/>
</svg>
