<svg width="63" height="34" viewBox="0 0 63 34" fill="none" xmlns="http://www.w3.org/2000/svg">
<rect width="63" height="34" rx="17" fill="white"/>
<path d="M23.586 14.902C23.538 14.986 23.486 15.048 23.43 15.088C23.378 15.124 23.312 15.142 23.232 15.142C23.148 15.142 23.056 15.112 22.956 15.052C22.86 14.988 22.744 14.918 22.608 14.842C22.472 14.766 22.312 14.698 22.128 14.638C21.948 14.574 21.734 14.542 21.486 14.542C21.262 14.542 21.066 14.57 20.898 14.626C20.73 14.678 20.588 14.752 20.472 14.848C20.36 14.944 20.276 15.06 20.22 15.196C20.164 15.328 20.136 15.474 20.136 15.634C20.136 15.838 20.192 16.008 20.304 16.144C20.42 16.28 20.572 16.396 20.76 16.492C20.948 16.588 21.162 16.674 21.402 16.75C21.642 16.826 21.888 16.908 22.14 16.996C22.392 17.08 22.638 17.18 22.878 17.296C23.118 17.408 23.332 17.552 23.52 17.728C23.708 17.9 23.858 18.112 23.97 18.364C24.086 18.616 24.144 18.922 24.144 19.282C24.144 19.674 24.076 20.042 23.94 20.386C23.808 20.726 23.612 21.024 23.352 21.28C23.096 21.532 22.782 21.732 22.41 21.88C22.038 22.024 21.612 22.096 21.132 22.096C20.856 22.096 20.584 22.068 20.316 22.012C20.048 21.96 19.79 21.884 19.542 21.784C19.298 21.684 19.068 21.564 18.852 21.424C18.636 21.284 18.444 21.128 18.276 20.956L18.75 20.182C18.79 20.126 18.842 20.08 18.906 20.044C18.97 20.004 19.038 19.984 19.11 19.984C19.21 19.984 19.318 20.026 19.434 20.11C19.55 20.19 19.688 20.28 19.848 20.38C20.008 20.48 20.194 20.572 20.406 20.656C20.622 20.736 20.88 20.776 21.18 20.776C21.64 20.776 21.996 20.668 22.248 20.452C22.5 20.232 22.626 19.918 22.626 19.51C22.626 19.282 22.568 19.096 22.452 18.952C22.34 18.808 22.19 18.688 22.002 18.592C21.814 18.492 21.6 18.408 21.36 18.34C21.12 18.272 20.876 18.198 20.628 18.118C20.38 18.038 20.136 17.942 19.896 17.83C19.656 17.718 19.442 17.572 19.254 17.392C19.066 17.212 18.914 16.988 18.798 16.72C18.686 16.448 18.63 16.114 18.63 15.718C18.63 15.402 18.692 15.094 18.816 14.794C18.944 14.494 19.128 14.228 19.368 13.996C19.608 13.764 19.904 13.578 20.256 13.438C20.608 13.298 21.012 13.228 21.468 13.228C21.98 13.228 22.452 13.308 22.884 13.468C23.316 13.628 23.684 13.852 23.988 14.14L23.586 14.902ZM29.2605 18.214C29.2605 18.022 29.2325 17.842 29.1765 17.674C29.1245 17.502 29.0445 17.352 28.9365 17.224C28.8285 17.096 28.6905 16.996 28.5225 16.924C28.3585 16.848 28.1665 16.81 27.9465 16.81C27.5185 16.81 27.1805 16.932 26.9325 17.176C26.6885 17.42 26.5325 17.766 26.4645 18.214H29.2605ZM26.4345 19.108C26.4585 19.424 26.5145 19.698 26.6025 19.93C26.6905 20.158 26.8065 20.348 26.9505 20.5C27.0945 20.648 27.2645 20.76 27.4605 20.836C27.6605 20.908 27.8805 20.944 28.1205 20.944C28.3605 20.944 28.5665 20.916 28.7385 20.86C28.9145 20.804 29.0665 20.742 29.1945 20.674C29.3265 20.606 29.4405 20.544 29.5365 20.488C29.6365 20.432 29.7325 20.404 29.8245 20.404C29.9485 20.404 30.0405 20.45 30.1005 20.542L30.5265 21.082C30.3625 21.274 30.1785 21.436 29.9745 21.568C29.7705 21.696 29.5565 21.8 29.3325 21.88C29.1125 21.956 28.8865 22.01 28.6545 22.042C28.4265 22.074 28.2045 22.09 27.9885 22.09C27.5605 22.09 27.1625 22.02 26.7945 21.88C26.4265 21.736 26.1065 21.526 25.8345 21.25C25.5625 20.97 25.3485 20.626 25.1925 20.218C25.0365 19.806 24.9585 19.33 24.9585 18.79C24.9585 18.37 25.0265 17.976 25.1625 17.608C25.2985 17.236 25.4925 16.914 25.7445 16.642C26.0005 16.366 26.3105 16.148 26.6745 15.988C27.0425 15.828 27.4565 15.748 27.9165 15.748C28.3045 15.748 28.6625 15.81 28.9905 15.934C29.3185 16.058 29.6005 16.24 29.8365 16.48C30.0725 16.716 30.2565 17.008 30.3885 17.356C30.5245 17.7 30.5925 18.094 30.5925 18.538C30.5925 18.762 30.5685 18.914 30.5205 18.994C30.4725 19.07 30.3805 19.108 30.2445 19.108H26.4345ZM33.0907 16.6C33.2147 16.476 33.3447 16.362 33.4807 16.258C33.6207 16.15 33.7667 16.06 33.9187 15.988C34.0747 15.912 34.2407 15.854 34.4167 15.814C34.5927 15.77 34.7847 15.748 34.9927 15.748C35.3287 15.748 35.6267 15.806 35.8867 15.922C36.1467 16.034 36.3627 16.194 36.5347 16.402C36.7107 16.606 36.8427 16.852 36.9307 17.14C37.0227 17.424 37.0687 17.738 37.0687 18.082V22H35.5867V18.082C35.5867 17.706 35.5007 17.416 35.3287 17.212C35.1567 17.004 34.8947 16.9 34.5427 16.9C34.2867 16.9 34.0467 16.958 33.8227 17.074C33.5987 17.19 33.3867 17.348 33.1867 17.548V22H31.7047V15.844H32.6107C32.8027 15.844 32.9287 15.934 32.9887 16.114L33.0907 16.6ZM42.3421 17.416C42.1741 17.212 41.9901 17.068 41.7901 16.984C41.5941 16.9 41.3821 16.858 41.1541 16.858C40.9301 16.858 40.7281 16.9 40.5481 16.984C40.3681 17.068 40.2141 17.196 40.0861 17.368C39.9581 17.536 39.8601 17.752 39.7921 18.016C39.7241 18.276 39.6901 18.584 39.6901 18.94C39.6901 19.3 39.7181 19.606 39.7741 19.858C39.8341 20.106 39.9181 20.31 40.0261 20.47C40.1341 20.626 40.2661 20.74 40.4221 20.812C40.5781 20.88 40.7521 20.914 40.9441 20.914C41.2521 20.914 41.5141 20.85 41.7301 20.722C41.9461 20.594 42.1501 20.412 42.3421 20.176V17.416ZM43.8241 13.084V22H42.9181C42.7221 22 42.5981 21.91 42.5461 21.73L42.4201 21.136C42.1721 21.42 41.8861 21.65 41.5621 21.826C41.2421 22.002 40.8681 22.09 40.4401 22.09C40.1041 22.09 39.7961 22.02 39.5161 21.88C39.2361 21.74 38.9941 21.538 38.7901 21.274C38.5901 21.006 38.4341 20.676 38.3221 20.284C38.2141 19.892 38.1601 19.444 38.1601 18.94C38.1601 18.484 38.2221 18.06 38.3461 17.668C38.4701 17.276 38.6481 16.936 38.8801 16.648C39.1121 16.36 39.3901 16.136 39.7141 15.976C40.0381 15.812 40.4021 15.73 40.8061 15.73C41.1501 15.73 41.4441 15.784 41.6881 15.892C41.9321 16 42.1501 16.146 42.3421 16.33V13.084H43.8241Z" fill="#005CB1"/>
</svg>
