<svg width="40" height="40" viewBox="0 0 40 40" fill="none" xmlns="http://www.w3.org/2000/svg">
<path d="M39.552 19.776C39.552 8.87942 30.6726 0 19.776 0C8.87942 0 0 8.87942 0 19.776C0 25.511 2.472 30.6726 6.38765 34.2916C6.38765 34.3113 6.38765 34.3114 6.36787 34.3311C6.56563 34.5289 6.80294 34.6871 7.0007 34.8651C7.11936 34.964 7.21824 35.0628 7.33689 35.1419C7.69286 35.4386 8.08838 35.7154 8.46413 35.9923C8.60256 36.0912 8.72121 36.1703 8.85965 36.2692C9.23539 36.5263 9.63091 36.7636 10.0462 36.9811C10.1846 37.0602 10.3428 37.1591 10.4813 37.2382C10.8768 37.4557 11.2921 37.6535 11.7272 37.8315C11.8854 37.9106 12.0436 37.9897 12.2018 38.049C12.6369 38.227 13.0719 38.3852 13.507 38.5236C13.6652 38.583 13.8234 38.6423 13.9816 38.6818C14.4563 38.8203 14.9309 38.9389 15.4055 39.0576C15.5439 39.0971 15.6824 39.1367 15.8406 39.1565C16.3943 39.2751 16.948 39.3542 17.5215 39.4136C17.6006 39.4136 17.6797 39.4333 17.7588 39.4531C18.4312 39.5124 19.1036 39.552 19.776 39.552C20.4484 39.552 21.1208 39.5124 21.7734 39.4531C21.8525 39.4531 21.9316 39.4333 22.0107 39.4136C22.5842 39.3542 23.1379 39.2751 23.6916 39.1565C23.8301 39.1367 23.9685 39.0774 24.1267 39.0576C24.6013 38.9389 25.0957 38.8401 25.5506 38.6818C25.7088 38.6225 25.867 38.5632 26.0252 38.5236C26.4603 38.3654 26.9151 38.227 27.3304 38.049C27.4886 37.9897 27.6468 37.9106 27.805 37.8315C28.2203 37.6535 28.6356 37.4557 29.0509 37.2382C29.2091 37.1591 29.3476 37.0602 29.486 36.9811C29.8815 36.7438 30.277 36.5263 30.6726 36.2692C30.811 36.1901 30.9297 36.0912 31.0681 35.9923C31.4636 35.7154 31.8394 35.4386 32.1953 35.1419C32.314 35.0431 32.4129 34.9442 32.5315 34.8651C32.749 34.6871 32.9666 34.5091 33.1643 34.3311C33.1643 34.3114 33.1643 34.3113 33.1446 34.2916C37.08 30.6726 39.552 25.511 39.552 19.776ZM29.5453 29.6047C24.186 26.0054 15.4055 26.0054 10.0067 29.6047C9.13651 30.1782 8.42457 30.8505 7.83129 31.5823C4.82534 28.5368 2.9664 24.364 2.9664 19.776C2.9664 10.5011 10.5011 2.9664 19.776 2.9664C29.0509 2.9664 36.5856 10.5011 36.5856 19.776C36.5856 24.364 34.7266 28.5368 31.7207 31.5823C31.1472 30.8505 30.4155 30.1782 29.5453 29.6047Z" fill="white"/>
<path d="M19.776 9.7489C15.6824 9.7489 12.36 13.0713 12.36 17.1649C12.36 21.1794 15.5044 24.4425 19.6771 24.5611H19.8551H19.9935H20.0331C24.0278 24.4227 27.1722 21.1794 27.192 17.1649C27.192 13.0713 23.8696 9.7489 19.776 9.7489Z" fill="white"/>
</svg>
