<svg width="68" height="34" viewBox="0 0 68 34" fill="none" xmlns="http://www.w3.org/2000/svg">
<rect width="68" height="34" rx="17" fill="gray"/>
<path d="M26.4 13.324L22.896 22H21.438L17.934 13.324H19.23C19.37 13.324 19.484 13.358 19.572 13.426C19.66 13.494 19.726 13.582 19.77 13.69L21.816 18.982C21.884 19.154 21.948 19.344 22.008 19.552C22.072 19.756 22.132 19.97 22.188 20.194C22.236 19.97 22.288 19.756 22.344 19.552C22.4 19.344 22.462 19.154 22.53 18.982L24.564 13.69C24.596 13.598 24.658 13.514 24.75 13.438C24.846 13.362 24.962 13.324 25.098 13.324H26.4ZM30.0808 18.214C30.0808 18.022 30.0528 17.842 29.9968 17.674C29.9448 17.502 29.8648 17.352 29.7568 17.224C29.6488 17.096 29.5108 16.996 29.3428 16.924C29.1788 16.848 28.9868 16.81 28.7668 16.81C28.3388 16.81 28.0008 16.932 27.7528 17.176C27.5088 17.42 27.3528 17.766 27.2848 18.214H30.0808ZM27.2548 19.108C27.2788 19.424 27.3348 19.698 27.4228 19.93C27.5108 20.158 27.6268 20.348 27.7708 20.5C27.9148 20.648 28.0848 20.76 28.2808 20.836C28.4808 20.908 28.7008 20.944 28.9408 20.944C29.1808 20.944 29.3868 20.916 29.5588 20.86C29.7348 20.804 29.8868 20.742 30.0148 20.674C30.1468 20.606 30.2608 20.544 30.3568 20.488C30.4568 20.432 30.5528 20.404 30.6448 20.404C30.7688 20.404 30.8608 20.45 30.9208 20.542L31.3468 21.082C31.1828 21.274 30.9988 21.436 30.7948 21.568C30.5908 21.696 30.3768 21.8 30.1528 21.88C29.9328 21.956 29.7068 22.01 29.4748 22.042C29.2468 22.074 29.0248 22.09 28.8088 22.09C28.3808 22.09 27.9828 22.02 27.6148 21.88C27.2468 21.736 26.9268 21.526 26.6548 21.25C26.3828 20.97 26.1688 20.626 26.0128 20.218C25.8568 19.806 25.7788 19.33 25.7788 18.79C25.7788 18.37 25.8468 17.976 25.9828 17.608C26.1188 17.236 26.3128 16.914 26.5648 16.642C26.8208 16.366 27.1308 16.148 27.4948 15.988C27.8628 15.828 28.2768 15.748 28.7368 15.748C29.1248 15.748 29.4828 15.81 29.8108 15.934C30.1388 16.058 30.4208 16.24 30.6568 16.48C30.8928 16.716 31.0768 17.008 31.2088 17.356C31.3448 17.7 31.4128 18.094 31.4128 18.538C31.4128 18.762 31.3888 18.914 31.3408 18.994C31.2928 19.07 31.2008 19.108 31.0648 19.108H27.2548ZM33.923 16.912C34.115 16.544 34.343 16.256 34.607 16.048C34.871 15.836 35.183 15.73 35.543 15.73C35.827 15.73 36.055 15.792 36.227 15.916L36.131 17.026C36.111 17.098 36.081 17.15 36.041 17.182C36.005 17.21 35.955 17.224 35.891 17.224C35.831 17.224 35.741 17.214 35.621 17.194C35.505 17.174 35.391 17.164 35.279 17.164C35.115 17.164 34.969 17.188 34.841 17.236C34.713 17.284 34.597 17.354 34.493 17.446C34.393 17.534 34.303 17.642 34.223 17.77C34.147 17.898 34.075 18.044 34.007 18.208V22H32.525V15.844H33.395C33.547 15.844 33.653 15.872 33.713 15.928C33.773 15.98 33.813 16.076 33.833 16.216L33.923 16.912ZM38.5375 15.844V22H37.0495V15.844H38.5375ZM38.7415 14.05C38.7415 14.178 38.7155 14.298 38.6635 14.41C38.6115 14.522 38.5415 14.62 38.4535 14.704C38.3695 14.788 38.2695 14.856 38.1535 14.908C38.0375 14.956 37.9135 14.98 37.7815 14.98C37.6535 14.98 37.5315 14.956 37.4155 14.908C37.3035 14.856 37.2055 14.788 37.1215 14.704C37.0375 14.62 36.9695 14.522 36.9175 14.41C36.8695 14.298 36.8455 14.178 36.8455 14.05C36.8455 13.918 36.8695 13.794 36.9175 13.678C36.9695 13.562 37.0375 13.462 37.1215 13.378C37.2055 13.294 37.3035 13.228 37.4155 13.18C37.5315 13.128 37.6535 13.102 37.7815 13.102C37.9135 13.102 38.0375 13.128 38.1535 13.18C38.2695 13.228 38.3695 13.294 38.4535 13.378C38.5415 13.462 38.6115 13.562 38.6635 13.678C38.7155 13.794 38.7415 13.918 38.7415 14.05ZM40.4804 22V16.96L39.9464 16.876C39.8304 16.852 39.7364 16.812 39.6644 16.756C39.5964 16.696 39.5624 16.612 39.5624 16.504V15.898H40.4804V15.442C40.4804 15.09 40.5324 14.774 40.6364 14.494C40.7444 14.214 40.8964 13.976 41.0924 13.78C41.2924 13.584 41.5344 13.434 41.8184 13.33C42.1024 13.226 42.4224 13.174 42.7784 13.174C43.0624 13.174 43.3264 13.212 43.5704 13.288L43.5404 14.032C43.5364 14.088 43.5204 14.134 43.4924 14.17C43.4644 14.202 43.4264 14.228 43.3784 14.248C43.3344 14.264 43.2824 14.276 43.2224 14.284C43.1624 14.288 43.0984 14.29 43.0304 14.29C42.8544 14.29 42.6964 14.31 42.5564 14.35C42.4204 14.386 42.3044 14.452 42.2084 14.548C42.1124 14.64 42.0384 14.764 41.9864 14.92C41.9384 15.072 41.9144 15.262 41.9144 15.49V15.898H43.5164V16.954H41.9624V22H40.4804ZM49.9412 15.844L46.5872 23.692C46.5432 23.796 46.4852 23.874 46.4132 23.926C46.3452 23.982 46.2392 24.01 46.0952 24.01H44.9912L46.1432 21.538L43.6532 15.844H44.9552C45.0712 15.844 45.1612 15.872 45.2252 15.928C45.2932 15.984 45.3432 16.048 45.3752 16.12L46.6832 19.312C46.7272 19.42 46.7632 19.528 46.7912 19.636C46.8232 19.744 46.8532 19.854 46.8812 19.966C46.9172 19.854 46.9532 19.744 46.9892 19.636C47.0252 19.524 47.0652 19.414 47.1092 19.306L48.3452 16.12C48.3772 16.04 48.4292 15.974 48.5012 15.922C48.5772 15.87 48.6612 15.844 48.7532 15.844H49.9412Z" fill="white"/>
</svg>
